<svg version="1" xmlns="http://www.w3.org/2000/svg" width="933.333" height="933.333" viewBox="0 0 700.000000 700.000000"><path d="M328.5.6c-20.3 2-27.6 2.8-37.5 4.5-61 10.5-119.5 37.6-166.5 77.2-9.5 8.1-31 29.4-39.4 39.2C44.2 168.8 16.9 226.2 5.6 288 .4 316.6.7 306.1.3 510.2L-.1 700h700.2l-.4-189.8c-.4-204.1-.1-193.6-5.3-222.2-11.3-61.8-38.6-119.2-79.5-166.5-8.4-9.8-29.9-31.1-39.4-39.2-51.8-43.7-114.8-71-184.5-79.8C379.3 1 337.4-.3 328.5.6zm39.7 70.9c56.1 7.4 101.6 47.1 116.9 102 5 18 4.9 14.3 4.9 243.1V630H210V416.6c0-183.3.2-215.1 1.5-224.8 2.5-18.8 7.8-34.9 16.6-50.3 28.9-50.3 83.3-77.5 140.1-70zm-232.3 213c12.1 1.7 27.1 5.5 37.4 9.5l7.2 2.7.3 16.2c.1 8.8 0 16.1-.4 16.1-.3 0-3.7-2-7.4-4.5-11-7.3-24.8-12.8-40.2-16.1-10.4-2.2-32.8-2.5-40.8-.5-18.6 4.6-30 16.2-30 30.7 0 8.5 2.3 15.3 6.7 19.9 7 7.2 14.5 9.5 54.8 17 27.4 5.1 40.9 10.3 51.2 19.9 10 9.3 14.3 20 14.3 35.8 0 30.4-23.6 54.4-60 60.9-9.2 1.6-36.5 1.6-47.5 0C70 490.4 53 485.7 42 481.3l-9.5-3.8-.3-16c-.1-8.7 0-16.5.2-17.2.4-.9 3.2.5 8.8 4.4 14.6 9.9 31.8 16.9 49.3 20 13.6 2.3 33.5 1.4 43.8-2.1 18.8-6.4 27.6-17.5 26.5-34-1.2-18.3-12.1-25.4-47.8-31.1-36.9-6-51.6-11-63.6-21.8C39 370.2 34 357.9 34 341.5c0-15.9 4.2-26 15.4-37 10.2-10.1 23.3-16.6 40.2-19.9 9.3-1.9 33.5-1.9 46.3-.1zm466.9 4c26.3 4.1 44 12.3 59.3 27.6 13.6 13.6 22.9 32.8 25.9 53.8 1.8 11.8.8 35.4-1.9 45.3-4.5 17.3-12.1 31.4-23 43-15.7 16.7-33.5 25.7-59.6 29.9-4 .7-24.2 1.4-46.7 1.6l-39.8.5V388.8c0-55.8.3-101.8.8-102.3 1.3-1.4 73.7.3 85 2z"/><path d="M272.7 286.6c-.4.4-.7 46.3-.7 102.1V490h26l.2-90.2.3-90.3 47.7 90 47.7 90 17 .3 17.1.2-.2-101.7-.3-101.8h-25l-.5 82.3-.5 82.2-43.6-82.2-43.6-82.3-20.4-.3c-11.3-.1-20.8.1-21.2.4zM544.2 388.1l.3 78.4 14.5.3c15.9.3 35.7-1.1 46.2-3.3 26.7-5.6 45.9-23.4 53-49.2 1.8-6.6 2.1-10.5 2.1-25.8s-.3-19.2-2.1-25.8c-6-22-19-36.6-40.2-45.4-13.2-5.5-19.9-6.5-48.3-7l-25.7-.5.2 78.3z"/></svg>